<?xml version="1.0" encoding="UTF-8"?>
<svg viewBox="0 0 270 76" version="1.1" xmlns="http://www.w3.org/2000/svg" xmlns:xlink="http://www.w3.org/1999/xlink">
    <!-- Generator: Sketch 51.2 (57519) - http://www.bohemiancoding.com/sketch -->
    <title>Postprocess</title>
    <desc>Created with Sketch.</desc>
    <defs>
        <path d="M16.1698,1.1167 C6.9105,1.1167 1.2242,2.9905 1.2242,4.3343 C1.2242,5.6781 6.9105,7.5518 16.1698,7.5518 C25.4292,7.5518 31.1154,5.6781 31.1154,4.3343 C31.1154,2.9905 25.4292,1.1167 16.1698,1.1167 Z M16.1698,8.3909 C8.5188,8.3909 0.3862,6.9696 0.3862,4.3343 C0.3862,1.699 8.5188,0.2777 16.1698,0.2777 C23.8209,0.2777 31.9535,1.699 31.9535,4.3343 C31.9535,6.9696 23.8209,8.3909 16.1698,8.3909 Z" id="path-1"></path>
        <path d="M16.1698,7.6653 C8.5188,7.6653 0.3862,6.2439 0.3862,3.6087 L0.3862,0.5597 C0.3862,0.3271 0.5732,0.1392 0.8057,0.1392 C1.0372,0.1392 1.2242,0.3271 1.2242,0.5597 L1.2242,3.6087 C1.2242,4.9525 6.9105,6.8262 16.1698,6.8262 C25.4292,6.8262 31.1154,4.9525 31.1154,3.6087 L31.1154,0.5597 C31.1154,0.3271 31.3024,0.1392 31.534,0.1392 C31.7665,0.1392 31.9535,0.3271 31.9535,0.5597 L31.9535,3.6087 C31.9535,6.2439 23.8209,7.6653 16.1698,7.6653 Z" id="path-3"></path>
        <path d="M16.1698,7.7553 C8.5188,7.7553 0.3862,6.333 0.3862,3.6987 L0.3862,0.6487 C0.3862,0.4172 0.5732,0.2292 0.8057,0.2292 C1.0372,0.2292 1.2242,0.4172 1.2242,0.6487 L1.2242,3.6987 C1.2242,5.0416 6.9105,6.9163 16.1698,6.9163 C25.4292,6.9163 31.1154,5.0416 31.1154,3.6987 L31.1154,0.6487 C31.1154,0.4172 31.3024,0.2292 31.534,0.2292 C31.7665,0.2292 31.9535,0.4172 31.9535,0.6487 L31.9535,3.6987 C31.9535,6.333 23.8209,7.7553 16.1698,7.7553 Z" id="path-5"></path>
        <path d="M16.1698,7.8449 C8.5188,7.8449 0.3862,6.4226 0.3862,3.7883 L0.3862,0.7383 C0.3862,0.5068 0.5732,0.3188 0.8057,0.3188 C1.0372,0.3188 1.2242,0.5068 1.2242,0.7383 L1.2242,3.7883 C1.2242,5.1311 6.9105,7.0059 16.1698,7.0059 C25.4292,7.0059 31.1154,5.1311 31.1154,3.7883 L31.1154,0.7383 C31.1154,0.5068 31.3024,0.3188 31.534,0.3188 C31.7665,0.3188 31.9535,0.5068 31.9535,0.7383 L31.9535,3.7883 C31.9535,6.4226 23.8209,7.8449 16.1698,7.8449 Z" id="path-7"></path>
        <path d="M0.86905,4.0057 L10.80109,4.0057 L10.80109,1.1698 L0.86905,1.1698 L0.86905,4.0057 Z M11.21441,4.8457 L0.45573,4.8457 C0.22759,4.8457 0.04241,4.6577 0.04241,4.4262 L0.04241,0.7503 C0.04241,0.5188 0.22759,0.3308 0.45573,0.3308 L11.21441,0.3308 C11.4435,0.3308 11.62773,0.5188 11.62773,0.7503 L11.62773,4.4262 C11.62773,4.6577 11.4435,4.8457 11.21441,4.8457 Z" id="path-9"></path>
        <path d="M0.86905,4.4794 L10.80109,4.4794 L10.80109,1.6436 L0.86905,1.6436 L0.86905,4.4794 Z M11.21441,5.3185 L0.45573,5.3185 C0.22759,5.3185 0.04241,5.1315 0.04241,4.899 L0.04241,1.2241 C0.04241,0.9916 0.22759,0.8046 0.45573,0.8046 L11.21441,0.8046 C11.4435,0.8046 11.62773,0.9916 11.62773,1.2241 L11.62773,4.899 C11.62773,5.1315 11.4435,5.3185 11.21441,5.3185 Z" id="path-11"></path>
        <path d="M0.86905,3.9532 L10.80109,3.9532 L10.80109,1.1174 L0.86905,1.1174 L0.86905,3.9532 Z M11.21441,4.7922 L0.45573,4.7922 C0.22759,4.7922 0.04241,4.6043 0.04241,4.3727 L0.04241,0.6979 C0.04241,0.4653 0.22759,0.2774 0.45573,0.2774 L11.21441,0.2774 C11.4435,0.2774 11.62773,0.4653 11.62773,0.6979 L11.62773,4.3727 C11.62773,4.6043 11.4435,4.7922 11.21441,4.7922 Z" id="path-13"></path>
        <path d="M7.45601,1.481 L0.8477,1.481 C0.6186,1.481 0.43438,1.2931 0.43438,1.0615 C0.43438,0.83 0.6186,0.642 0.8477,0.642 L7.45601,0.642 C7.68415,0.642 7.86933,0.83 7.86933,1.0615 C7.86933,1.2931 7.68415,1.481 7.45601,1.481 Z" id="path-15"></path>
        <path d="M1.39993,6.7428 C1.1718,6.7428 0.98661,6.5548 0.98661,6.3233 L0.98661,0.5324 C0.98661,0.3008 1.1718,0.1119 1.39993,0.1119 L14.4562,0.1119 C14.68434,0.1119 14.86952,0.3008 14.86952,0.5324 C14.86952,0.7639 14.68434,0.9519 14.4562,0.9519 L1.81325,0.9519 L1.81325,6.3233 C1.81325,6.5548 1.62807,6.7428 1.39993,6.7428 Z" id="path-17"></path>
        <path d="M14.45601,7.0108 L1.39974,7.0108 C1.1716,7.0108 0.98642,6.8228 0.98642,6.5912 L0.98642,1.1986 C0.98642,0.967 1.1716,0.7791 1.39974,0.7791 C1.62883,0.7791 1.81306,0.967 1.81306,1.1986 L1.81306,6.1717 L14.45601,6.1717 C14.68415,6.1717 14.86933,6.3597 14.86933,6.5912 C14.86933,6.8228 14.68415,7.0108 14.45601,7.0108 Z" id="path-19"></path>
        <path d="M8.35566,1.1656 L0.44344,1.1656 C0.2153,1.1656 0.03012,0.9776 0.03012,0.7461 C0.03012,0.5145 0.2153,0.3266 0.44344,0.3266 L8.35566,0.3266 C8.5838,0.3266 8.76898,0.5145 8.76898,0.7461 C8.76898,0.9776 8.5838,1.1656 8.35566,1.1656 Z" id="path-21"></path>
        <path d="M8.35566,1.481 L0.44344,1.481 C0.2153,1.481 0.03012,1.2931 0.03012,1.0615 C0.03012,0.83 0.2153,0.642 0.44344,0.642 L8.35566,0.642 C8.5838,0.642 8.76898,0.83 8.76898,1.0615 C8.76898,1.2931 8.5838,1.481 8.35566,1.481 Z" id="path-23"></path>
        <path d="M8.35566,1.7968 L0.44344,1.7968 C0.2153,1.7968 0.03012,1.6088 0.03012,1.3772 C0.03012,1.1457 0.2153,0.9577 0.44344,0.9577 L8.35566,0.9577 C8.5838,0.9577 8.76898,1.1457 8.76898,1.3772 C8.76898,1.6088 8.5838,1.7968 8.35566,1.7968 Z" id="path-25"></path>
        <path d="M1.35432,16.341 L13.43409,16.341 L13.43409,1.7985 L1.35432,1.7985 L1.35432,16.341 Z M13.84741,17.181 L0.94005,17.181 C0.71191,17.181 0.52673,16.9931 0.52673,16.7606 L0.52673,1.379 C0.52673,1.1474 0.71191,0.9594 0.94005,0.9594 L13.84741,0.9594 C14.07555,0.9594 14.26073,1.1474 14.26073,1.379 L14.26073,16.7606 C14.26073,16.9931 14.07555,17.181 13.84741,17.181 Z" id="path-27"></path>
        <path d="M31.5324,31.4871 L0.8041,31.4871 C0.5726,31.4871 0.3856,31.3019 0.3856,31.0738 L0.3856,0.7994 C0.3856,0.5713 0.5726,0.3861 0.8041,0.3861 C1.0357,0.3861 1.2237,0.5713 1.2237,0.7994 L1.2237,30.6605 L31.5324,30.6605 C31.764,30.6605 31.952,30.8457 31.952,31.0738 C31.952,31.3019 31.764,31.4871 31.5324,31.4871 Z" id="path-29"></path>
        <path d="M1.9132,1.5204 C1.9132,2.0315 1.4995,2.4465 0.988,2.4465 C0.4774,2.4465 0.0637,2.0315 0.0637,1.5204 C0.0637,1.0094 0.4774,0.5943 0.988,0.5943 C1.4995,0.5943 1.9132,1.0094 1.9132,1.5204 Z" id="path-31"></path>
        <path d="M1.9132,1.5204 C1.9132,2.0315 1.4995,2.4465 0.988,2.4465 C0.4774,2.4465 0.0637,2.0315 0.0637,1.5204 C0.0637,1.0094 0.4774,0.5943 0.988,0.5943 C1.4995,0.5943 1.9132,1.0094 1.9132,1.5204 Z" id="path-33"></path>
        <path d="M1.9132,1.5204 C1.9132,2.0315 1.4995,2.4465 0.988,2.4465 C0.4774,2.4465 0.0637,2.0315 0.0637,1.5204 C0.0637,1.0094 0.4774,0.5943 0.988,0.5943 C1.4995,0.5943 1.9132,1.0094 1.9132,1.5204 Z" id="path-35"></path>
        <path d="M1.9132,1.5204 C1.9132,2.0315 1.4995,2.4465 0.988,2.4465 C0.4774,2.4465 0.0637,2.0315 0.0637,1.5204 C0.0637,1.0094 0.4774,0.5943 0.988,0.5943 C1.4995,0.5943 1.9132,1.0094 1.9132,1.5204 Z" id="path-37"></path>
        <path d="M1.9132,1.5204 C1.9132,2.0315 1.4995,2.4465 0.988,2.4465 C0.4774,2.4465 0.0637,2.0315 0.0637,1.5204 C0.0637,1.0094 0.4774,0.5943 0.988,0.5943 C1.4995,0.5943 1.9132,1.0094 1.9132,1.5204 Z" id="path-39"></path>
    </defs>
    <g id="Postprocess" stroke="none" stroke-width="1" fill="none" fill-rule="evenodd">
        <rect id="Rectangle-3-Copy-17" fill-opacity="0.460000008" fill="#0BBDBA" x="208" y="5" width="55" height="55" rx="16"></rect>
        <path id="Path-8-Copy-2" d="M98.7669007,29.1441211 L106.766901,33.6441211 L106.766901,32.7725456 L98.7669007,37.2725456 L99.2571619,38.1441211 L107.257162,33.6441211 L108.031896,33.2083333 L107.257162,32.7725456 L99.2571619,28.2725456 L98.7669007,29.1441211 Z M63.5,33.7083333 L99.0120313,33.7083333 L106.512031,33.7083333 L106.512031,32.7083333 L99.0120313,32.7083333 L63.5,32.7083333 L63.5,33.7083333 Z" fill="#CFCFCF" fill-rule="nonzero"></path>
        <path id="Path-8-Copy-3" d="M198.766901,29.1441211 L206.766901,33.6441211 L206.766901,32.7725456 L198.766901,37.2725456 L199.257162,38.1441211 L207.257162,33.6441211 L208.031896,33.2083333 L207.257162,32.7725456 L199.257162,28.2725456 L198.766901,29.1441211 Z M163.5,33.7083333 L199.012031,33.7083333 L206.512031,33.7083333 L206.512031,32.7083333 L199.012031,32.7083333 L163.5,32.7083333 L163.5,33.7083333 Z" fill="#CFCFCF" fill-rule="nonzero"></path>
        <g id="Group-3-Copy-5" transform="translate(17.000000, 16.000000)">
            <g id="Group-5">
                <g id="Group-Copy-16">
                    <g id="Group-2988">
                        <mask id="mask-2" fill="white">
                            <use xlink:href="#path-1"></use>
                        </mask>
                        <g id="Clip-2987"></g>
                        <polygon id="Fill-2986" fill="#000000" mask="url(#mask-2)" points="-2.1138 10.8909 34.45354 10.8909 34.45354 -2.22232 -2.1138 -2.22232"></polygon>
                    </g>
                    <g id="Group-2991" transform="translate(0.000000, 8.000000)">
                        <mask id="mask-4" fill="white">
                            <use xlink:href="#path-3"></use>
                        </mask>
                        <g id="Clip-2990"></g>
                        <polygon id="Fill-2989" fill="#000000" mask="url(#mask-4)" points="-2.1138 10.1653 34.45354 10.1653 34.45354 -2.36079 -2.1138 -2.36079"></polygon>
                    </g>
                    <g id="Group-2994" transform="translate(0.000000, 16.000000)">
                        <mask id="mask-6" fill="white">
                            <use xlink:href="#path-5"></use>
                        </mask>
                        <g id="Clip-2993"></g>
                        <polygon id="Fill-2992" fill="#000000" mask="url(#mask-6)" points="-2.1138 10.2553 34.45354 10.2553 34.45354 -2.27079 -2.1138 -2.27079"></polygon>
                    </g>
                    <g id="Group-2997" transform="translate(0.000000, 24.000000)">
                        <mask id="mask-8" fill="white">
                            <use xlink:href="#path-7"></use>
                        </mask>
                        <g id="Clip-2996"></g>
                        <polygon id="Fill-2995" fill="#000000" mask="url(#mask-8)" points="-2.1138 10.3449 34.45354 10.3449 34.45354 -2.18119 -2.1138 -2.18119"></polygon>
                    </g>
                </g>
            </g>
        </g>
        <g id="Group-9-Copy-4" transform="translate(219.000000, 17.000000)">
            <g id="Group-2-Copy-4">
                <g id="Group-312" transform="translate(20.000000, 27.000000)">
                    <mask id="mask-10" fill="white">
                        <use xlink:href="#path-9"></use>
                    </mask>
                    <g id="Clip-311"></g>
                    <polygon id="Fill-310" fill="#000000" mask="url(#mask-10)" points="-2.45759 7.3457 14.12773 7.3457 14.12773 -2.169179 -2.45759 -2.169179"></polygon>
                </g>
                <g id="Group-315" transform="translate(20.000000, 13.000000)">
                    <mask id="mask-12" fill="white">
                        <use xlink:href="#path-11"></use>
                    </mask>
                    <g id="Clip-314"></g>
                    <polygon id="Fill-313" fill="#000000" mask="url(#mask-12)" points="-2.45759 7.8185 14.12773 7.8185 14.12773 -1.69541 -2.45759 -1.69541"></polygon>
                </g>
                <g id="Group-318" transform="translate(20.000000, 0.000000)">
                    <mask id="mask-14" fill="white">
                        <use xlink:href="#path-13"></use>
                    </mask>
                    <g id="Clip-317"></g>
                    <polygon id="Fill-316" fill="#000000" mask="url(#mask-14)" points="-2.45759 7.2922 14.12773 7.2922 14.12773 -2.222679 -2.45759 -2.222679"></polygon>
                </g>
                <g id="Group-321" transform="translate(13.000000, 15.000000)">
                    <mask id="mask-16" fill="white">
                        <use xlink:href="#path-15"></use>
                    </mask>
                    <g id="Clip-320"></g>
                    <polygon id="Fill-319" fill="#000000" mask="url(#mask-16)" points="-2.06562 3.981 10.36933 3.981 10.36933 -1.858031 -2.06562 -1.858031"></polygon>
                </g>
                <g id="Group-324" transform="translate(6.000000, 2.000000)">
                    <mask id="mask-18" fill="white">
                        <use xlink:href="#path-17"></use>
                    </mask>
                    <g id="Clip-323"></g>
                    <polygon id="Fill-322" fill="#000000" mask="url(#mask-18)" points="-1.51339 9.2428 17.36952 9.2428 17.36952 -2.38807 -1.51339 -2.38807"></polygon>
                </g>
                <g id="Group-327" transform="translate(6.000000, 23.000000)">
                    <mask id="mask-20" fill="white">
                        <use xlink:href="#path-19"></use>
                    </mask>
                    <g id="Clip-326"></g>
                    <polygon id="Fill-325" fill="#000000" mask="url(#mask-20)" points="-1.51358 9.5108 17.36933 9.5108 17.36933 -1.7209 -1.51358 -1.7209"></polygon>
                </g>
                <g id="Group-330" transform="translate(3.000000, 19.000000)">
                    <mask id="mask-22" fill="white">
                        <use xlink:href="#path-21"></use>
                    </mask>
                    <g id="Clip-329"></g>
                    <polygon id="Fill-328" fill="#000000" mask="url(#mask-22)" points="-2.46988 3.6656 11.26898 3.6656 11.26898 -2.173431 -2.46988 -2.173431"></polygon>
                </g>
                <g id="Group-333" transform="translate(3.000000, 15.000000)">
                    <mask id="mask-24" fill="white">
                        <use xlink:href="#path-23"></use>
                    </mask>
                    <g id="Clip-332"></g>
                    <polygon id="Fill-331" fill="#000000" mask="url(#mask-24)" points="-2.46988 3.981 11.26898 3.981 11.26898 -1.858031 -2.46988 -1.858031"></polygon>
                </g>
                <g id="Group-336" transform="translate(3.000000, 11.000000)">
                    <mask id="mask-26" fill="white">
                        <use xlink:href="#path-25"></use>
                    </mask>
                    <g id="Clip-335"></g>
                    <polygon id="Fill-334" fill="#000000" mask="url(#mask-26)" points="-2.46988 4.2968 11.26898 4.2968 11.26898 -1.542231 -2.46988 -1.542231"></polygon>
                </g>
                <g id="Group-339" transform="translate(0.000000, 7.000000)">
                    <mask id="mask-28" fill="white">
                        <use xlink:href="#path-27"></use>
                    </mask>
                    <g id="Clip-338"></g>
                    <polygon id="Fill-337" fill="#000000" mask="url(#mask-28)" points="-1.97327 19.681 16.76073 19.681 16.76073 -1.54059 -1.97327 -1.54059"></polygon>
                </g>
            </g>
        </g>
        <text id="Data" font-family="IBMPlexSans, IBM Plex Sans" font-size="12" font-weight="normal" letter-spacing="0.0857143" fill="#3D3D3D">
            <tspan x="20" y="72">Data</tspan>
        </text>
        <text id="Classifier" font-family="IBMPlexSans, IBM Plex Sans" font-size="12" font-weight="normal" letter-spacing="0.0857143" fill="#3D3D3D">
            <tspan x="113" y="72">Classifier</tspan>
        </text>
        <text id="Predictions" font-family="IBMPlexSans, IBM Plex Sans" font-size="12" font-weight="normal" letter-spacing="0.0857143" fill="#3D3D3D">
            <tspan x="205" y="72">Predictions</tspan>
        </text>
        <g id="Group-10-Copy-6" transform="translate(119.000000, 18.000000)">
            <g id="Group-2607-Copy-4">
                <mask id="mask-30" fill="white">
                    <use xlink:href="#path-29"></use>
                </mask>
                <g id="Clip-2606"></g>
                <polygon id="Fill-2605" fill="#000000" mask="url(#mask-30)" points="-2.1144 33.9871 34.45197 33.9871 34.45197 -2.1139 -2.1144 -2.1139"></polygon>
            </g>
            <g id="Group-2646-Copy-16" transform="translate(6.000000, 2.000000)">
                <mask id="mask-32" fill="white">
                    <use xlink:href="#path-31"></use>
                </mask>
                <g id="Clip-2645"></g>
                <polygon id="Fill-2644" fill="#000000" mask="url(#mask-32)" points="-2.4363 4.9465 4.41325 4.9465 4.41325 -1.905695 -2.4363 -1.905695"></polygon>
            </g>
            <g id="Group-2646-Copy-17" transform="translate(10.000000, 9.000000)">
                <mask id="mask-34" fill="white">
                    <use xlink:href="#path-33"></use>
                </mask>
                <g id="Clip-2645"></g>
                <polygon id="Fill-2644" fill="#000000" mask="url(#mask-34)" points="-2.4363 4.9465 4.41325 4.9465 4.41325 -1.905695 -2.4363 -1.905695"></polygon>
            </g>
            <g id="Group-2646-Copy-18" transform="translate(17.000000, 0.000000)">
                <mask id="mask-36" fill="white">
                    <use xlink:href="#path-35"></use>
                </mask>
                <g id="Clip-2645"></g>
                <polygon id="Fill-2644" fill="#000000" mask="url(#mask-36)" points="-2.4363 4.9465 4.41325 4.9465 4.41325 -1.905695 -2.4363 -1.905695"></polygon>
            </g>
            <g id="Group-2646-Copy-19" transform="translate(19.000000, 19.000000)">
                <mask id="mask-38" fill="white">
                    <use xlink:href="#path-37"></use>
                </mask>
                <g id="Clip-2645"></g>
                <polygon id="Fill-2644" fill="#000000" mask="url(#mask-38)" points="-2.4363 4.9465 4.41325 4.9465 4.41325 -1.905695 -2.4363 -1.905695"></polygon>
            </g>
            <g id="Group-2646-Copy-20" transform="translate(3.000000, 11.000000)">
                <mask id="mask-40" fill="white">
                    <use xlink:href="#path-39"></use>
                </mask>
                <g id="Clip-2645"></g>
                <polygon id="Fill-2644" fill="#000000" mask="url(#mask-40)" points="-2.4363 4.9465 4.41325 4.9465 4.41325 -1.905695 -2.4363 -1.905695"></polygon>
            </g>
            <g id="Group-2-Copy-13" transform="translate(9.000000, 22.000000)" stroke="#1C1C1C" stroke-linecap="round">
                <path d="M0.5,0.5 L4.5,4.5" id="Line-2"></path>
                <path d="M0.5,0.5 L4.5,4.5" id="Line-2-Copy" transform="translate(2.500000, 2.500000) scale(-1, 1) translate(-2.500000, -2.500000) "></path>
            </g>
            <g id="Group-2-Copy-14" transform="translate(25.000000, 10.000000)" stroke="#1C1C1C" stroke-linecap="round">
                <path d="M0.5,0.5 L4.5,4.5" id="Line-2"></path>
                <path d="M0.5,0.5 L4.5,4.5" id="Line-2-Copy" transform="translate(2.500000, 2.500000) scale(-1, 1) translate(-2.500000, -2.500000) "></path>
            </g>
            <g id="Group-2-Copy-15" transform="translate(23.000000, 22.000000)" stroke="#1C1C1C" stroke-linecap="round">
                <path d="M0.5,0.5 L4.5,4.5" id="Line-2"></path>
                <path d="M0.5,0.5 L4.5,4.5" id="Line-2-Copy" transform="translate(2.500000, 2.500000) scale(-1, 1) translate(-2.500000, -2.500000) "></path>
            </g>
            <path d="M1,21 L30,5" id="Path-2" stroke="#000000" fill="#D8D8D8" fill-rule="nonzero" stroke-linecap="round"></path>
        </g>
    </g>
</svg>